<mxfile host="app.diagrams.net" modified="2023-12-16T12:38:18.246Z" agent="Mozilla/5.0 (Windows NT 10.0; Win64; x64) AppleWebKit/537.36 (KHTML, like Gecko) Chrome/120.0.0.0 Safari/537.36 Edg/120.0.0.0" etag="cqFF-QpA6a7KFDkGWktL" version="22.1.11" type="github">
  <diagram name="第 1 页" id="vnVOITP8cnGdgULQPBro">
    <mxGraphModel dx="993" dy="629" grid="1" gridSize="10" guides="1" tooltips="1" connect="1" arrows="1" fold="1" page="1" pageScale="1" pageWidth="827" pageHeight="1169" math="0" shadow="0">
      <root>
        <mxCell id="0" />
        <mxCell id="1" parent="0" />
        <mxCell id="Ex4k3VWaGX6YuMaDQ23N-8" style="edgeStyle=orthogonalEdgeStyle;rounded=0;orthogonalLoop=1;jettySize=auto;html=1;exitX=0.5;exitY=1;exitDx=0;exitDy=0;entryX=0.5;entryY=0;entryDx=0;entryDy=0;" edge="1" parent="1" source="Ex4k3VWaGX6YuMaDQ23N-1" target="Ex4k3VWaGX6YuMaDQ23N-2">
          <mxGeometry relative="1" as="geometry" />
        </mxCell>
        <mxCell id="Ex4k3VWaGX6YuMaDQ23N-1" value="项目委托承接" style="rounded=0;whiteSpace=wrap;html=1;" vertex="1" parent="1">
          <mxGeometry x="120" y="60" width="120" height="60" as="geometry" />
        </mxCell>
        <mxCell id="Ex4k3VWaGX6YuMaDQ23N-9" style="edgeStyle=orthogonalEdgeStyle;rounded=0;orthogonalLoop=1;jettySize=auto;html=1;exitX=0.5;exitY=1;exitDx=0;exitDy=0;entryX=0.5;entryY=0;entryDx=0;entryDy=0;" edge="1" parent="1" source="Ex4k3VWaGX6YuMaDQ23N-2" target="Ex4k3VWaGX6YuMaDQ23N-3">
          <mxGeometry relative="1" as="geometry" />
        </mxCell>
        <mxCell id="Ex4k3VWaGX6YuMaDQ23N-2" value="编制招标文件&lt;br&gt;（含清单控制价）" style="rounded=0;whiteSpace=wrap;html=1;" vertex="1" parent="1">
          <mxGeometry x="120" y="160" width="120" height="60" as="geometry" />
        </mxCell>
        <mxCell id="Ex4k3VWaGX6YuMaDQ23N-10" style="edgeStyle=orthogonalEdgeStyle;rounded=0;orthogonalLoop=1;jettySize=auto;html=1;exitX=0.5;exitY=1;exitDx=0;exitDy=0;entryX=0.5;entryY=0;entryDx=0;entryDy=0;" edge="1" parent="1" source="Ex4k3VWaGX6YuMaDQ23N-3" target="Ex4k3VWaGX6YuMaDQ23N-4">
          <mxGeometry relative="1" as="geometry" />
        </mxCell>
        <mxCell id="Ex4k3VWaGX6YuMaDQ23N-3" value="发售招标文件" style="rounded=0;whiteSpace=wrap;html=1;" vertex="1" parent="1">
          <mxGeometry x="120" y="260" width="120" height="60" as="geometry" />
        </mxCell>
        <mxCell id="Ex4k3VWaGX6YuMaDQ23N-11" style="edgeStyle=orthogonalEdgeStyle;rounded=0;orthogonalLoop=1;jettySize=auto;html=1;exitX=0.5;exitY=1;exitDx=0;exitDy=0;entryX=0.5;entryY=0;entryDx=0;entryDy=0;" edge="1" parent="1" source="Ex4k3VWaGX6YuMaDQ23N-4" target="Ex4k3VWaGX6YuMaDQ23N-5">
          <mxGeometry relative="1" as="geometry" />
        </mxCell>
        <mxCell id="Ex4k3VWaGX6YuMaDQ23N-4" value="开标" style="rounded=0;whiteSpace=wrap;html=1;" vertex="1" parent="1">
          <mxGeometry x="120" y="360" width="120" height="60" as="geometry" />
        </mxCell>
        <mxCell id="Ex4k3VWaGX6YuMaDQ23N-12" style="edgeStyle=orthogonalEdgeStyle;rounded=0;orthogonalLoop=1;jettySize=auto;html=1;exitX=0.5;exitY=1;exitDx=0;exitDy=0;entryX=0.5;entryY=0;entryDx=0;entryDy=0;" edge="1" parent="1" source="Ex4k3VWaGX6YuMaDQ23N-5" target="Ex4k3VWaGX6YuMaDQ23N-6">
          <mxGeometry relative="1" as="geometry" />
        </mxCell>
        <mxCell id="Ex4k3VWaGX6YuMaDQ23N-5" value="评标" style="rounded=0;whiteSpace=wrap;html=1;" vertex="1" parent="1">
          <mxGeometry x="120" y="460" width="120" height="60" as="geometry" />
        </mxCell>
        <mxCell id="Ex4k3VWaGX6YuMaDQ23N-13" style="edgeStyle=orthogonalEdgeStyle;rounded=0;orthogonalLoop=1;jettySize=auto;html=1;exitX=0.5;exitY=1;exitDx=0;exitDy=0;entryX=0.5;entryY=0;entryDx=0;entryDy=0;" edge="1" parent="1" source="Ex4k3VWaGX6YuMaDQ23N-6" target="Ex4k3VWaGX6YuMaDQ23N-7">
          <mxGeometry relative="1" as="geometry" />
        </mxCell>
        <mxCell id="Ex4k3VWaGX6YuMaDQ23N-6" value="发布中标候选人公示" style="rounded=0;whiteSpace=wrap;html=1;" vertex="1" parent="1">
          <mxGeometry x="120" y="560" width="120" height="60" as="geometry" />
        </mxCell>
        <mxCell id="Ex4k3VWaGX6YuMaDQ23N-23" style="edgeStyle=orthogonalEdgeStyle;rounded=0;orthogonalLoop=1;jettySize=auto;html=1;exitX=0.5;exitY=1;exitDx=0;exitDy=0;entryX=0.5;entryY=0;entryDx=0;entryDy=0;" edge="1" parent="1" source="Ex4k3VWaGX6YuMaDQ23N-7" target="Ex4k3VWaGX6YuMaDQ23N-22">
          <mxGeometry relative="1" as="geometry" />
        </mxCell>
        <mxCell id="Ex4k3VWaGX6YuMaDQ23N-7" value="发送中标通知书、&lt;br&gt;中标结果通知书" style="rounded=0;whiteSpace=wrap;html=1;" vertex="1" parent="1">
          <mxGeometry x="120" y="660" width="120" height="60" as="geometry" />
        </mxCell>
        <mxCell id="Ex4k3VWaGX6YuMaDQ23N-18" style="edgeStyle=orthogonalEdgeStyle;rounded=0;orthogonalLoop=1;jettySize=auto;html=1;exitX=0;exitY=0.5;exitDx=0;exitDy=0;entryX=1;entryY=0.5;entryDx=0;entryDy=0;" edge="1" parent="1" source="Ex4k3VWaGX6YuMaDQ23N-17" target="Ex4k3VWaGX6YuMaDQ23N-3">
          <mxGeometry relative="1" as="geometry" />
        </mxCell>
        <mxCell id="Ex4k3VWaGX6YuMaDQ23N-17" value="自招标文件发出之日起至投标截止不少于20日（政府采购为工作日）" style="rounded=0;whiteSpace=wrap;html=1;" vertex="1" parent="1">
          <mxGeometry x="320" y="260" width="220" height="60" as="geometry" />
        </mxCell>
        <mxCell id="Ex4k3VWaGX6YuMaDQ23N-21" style="edgeStyle=orthogonalEdgeStyle;rounded=0;orthogonalLoop=1;jettySize=auto;html=1;exitX=0;exitY=0.5;exitDx=0;exitDy=0;entryX=1;entryY=0.5;entryDx=0;entryDy=0;" edge="1" parent="1" source="Ex4k3VWaGX6YuMaDQ23N-19" target="Ex4k3VWaGX6YuMaDQ23N-5">
          <mxGeometry relative="1" as="geometry" />
        </mxCell>
        <mxCell id="Ex4k3VWaGX6YuMaDQ23N-19" value="抽取专家5人以上单数" style="rounded=0;whiteSpace=wrap;html=1;" vertex="1" parent="1">
          <mxGeometry x="320" y="460" width="220" height="60" as="geometry" />
        </mxCell>
        <mxCell id="Ex4k3VWaGX6YuMaDQ23N-22" value="合同签订" style="rounded=0;whiteSpace=wrap;html=1;" vertex="1" parent="1">
          <mxGeometry x="120" y="760" width="120" height="60" as="geometry" />
        </mxCell>
        <mxCell id="Ex4k3VWaGX6YuMaDQ23N-25" style="edgeStyle=orthogonalEdgeStyle;rounded=0;orthogonalLoop=1;jettySize=auto;html=1;exitX=0;exitY=0.5;exitDx=0;exitDy=0;entryX=1;entryY=0.5;entryDx=0;entryDy=0;" edge="1" parent="1" source="Ex4k3VWaGX6YuMaDQ23N-24" target="Ex4k3VWaGX6YuMaDQ23N-22">
          <mxGeometry relative="1" as="geometry" />
        </mxCell>
        <mxCell id="Ex4k3VWaGX6YuMaDQ23N-24" value="自中标通知书发出之日起30天" style="rounded=0;whiteSpace=wrap;html=1;" vertex="1" parent="1">
          <mxGeometry x="320" y="760" width="220" height="60" as="geometry" />
        </mxCell>
      </root>
    </mxGraphModel>
  </diagram>
</mxfile>
